HIERARCHY
ROOT ui
{
	 OFFSET 0 0 0
	 CHANNELS 3 XPosition YPosition Z Position
	 EndSite
	 {
	 OFFSET 0 -1 0
	 }
}
ROOT li
{
	 OFFSET 0 0 0
	 CHANNELS 3 XPosition YPosition Z Position
	 EndSite
	 {
	 OFFSET 0 -1 0
	 }
}
ROOT ul
{
	 OFFSET 0 0 0
	 CHANNELS 3 XPosition YPosition Z Position
	 EndSite
	 {
	 OFFSET 0 -1 0
	 }
}
ROOT ll
{
	 OFFSET 0 0 0
	 CHANNELS 3 XPosition YPosition Z Position
	 EndSite
	 {
	 OFFSET 0 -1 0
	 }
}
ROOT tt
{
	 OFFSET 0 0 0
	 CHANNELS 3 XPosition YPosition Z Position
	 EndSite
	 {
	 OFFSET 0 -1 0
	 }
}
ROOT tb
{
	 OFFSET 0 0 0
	 CHANNELS 3 XPosition YPosition Z Position
	 EndSite
	 {
	 OFFSET 0 -1 0
	 }
}
ROOT td
{
	 OFFSET 0 0 0
	 CHANNELS 3 XPosition YPosition Z Position
	 EndSite
	 {
	 OFFSET 0 -1 0
	 }
}
ROOT v
{
	 OFFSET 0 0 0
	 CHANNELS 3 XPosition YPosition Z Position
	 EndSite
	 {
	 OFFSET 0 -1 0
	 }
}
ROOT bn
{
	 OFFSET 0 0 0
	 CHANNELS 3 XPosition YPosition Z Position
	 EndSite
	 {
	 OFFSET 0 -1 0
	 }
}
MOTION
Frames: 27
Frame Time: 0.002
-0.0017025489807128906	-2.539960145950317E-4	0		0.4796197204589844	-2.418794677734375	0		-0.9846400756835938	0.012347515106201173	0		-0.734828857421875	-2.16676953125	0		1.4786800537109375	-0.5753689575195312	0		3.216166259765625	-0.1961779479980469	0		4.68364453125	-0.1319342346191406	0		5.57817822265625	0.09918067932128906	0		-0.03601396942138672	5.95546142578125	0		
-0.030988950729370118	0.004874319076538086	0		0.4985860595703125	-2.414517333984375	0		-0.9208690185546875	0.019619243621826172	0		-0.706891357421875	-2.16279296875	0		1.480356201171875	-0.5756630859375	0		3.195955810546875	-0.18787193298339844	0		4.68527294921875	-0.13188221740722655	0		5.57978125	0.09932931518554687	0		-0.03602420425415039	5.9560224609375	0		
-0.02448739242553711	3.243890106678009E-4	0		0.48333929443359375	-2.419597412109375	0		-0.9773767700195313	0.015149803161621093	0		-0.768120361328125	-2.1651455078125	0		1.4937708740234374	-0.588176025390625	0		3.21940087890625	-0.19638363647460938	0		4.69171484375	-0.13991188049316405	0		5.59199072265625	0.08028789520263672	0		-0.034121448516845704	5.95454638671875	0		
0.006089270114898682	0.0023332669734954835	0		0.4892052307128906	-2.41606787109375	0		-0.9677237548828125	0.021443572998046875	0		-0.7493776245117187	-2.16699462890625	0		1.4405384521484375	-0.5784391479492188	0		3.228133056640625	-0.1866098175048828	0		4.7014775390625	-0.12799494171142578	0		5.591140625	0.11450466156005859	0		-0.15047245788574218	5.943271484375	0		
-0.014389213562011718	0.005300716876983642	0		0.49402056884765627	-2.4115107421875	0		-0.9662634887695313	0.020899696350097655	0		-0.68563623046875	-2.16566162109375	0		1.5020162353515625	-0.5818318481445313	0		3.2165625	-0.18945982360839844	0		4.70088037109375	-0.1318890380859375	0		5.58431494140625	0.09981942749023437	0		-0.15063298034667968	5.943833984375	0		
9.61089015007019E-4	0.002615715980529785	0		0.5164751586914063	-2.42227001953125	0		-0.9848171997070313	0.023739368438720702	0		-0.72608642578125	-2.169386962890625	0		1.449659912109375	-0.5711104736328125	0		3.201993408203125	-0.18825631713867189	0		4.6912861328125	-0.13162217712402344	0		5.57669580078125	0.10014181518554688	0		-0.032644813537597656	5.95423876953125	0		
-0.015744673728942872	0.0015341900587081908	0		0.49005056762695315	-2.4211171875	0		-0.9036328125	0.015768346786499025	0		-0.6984722290039063	-2.1653466796875	0		1.4879293212890625	-0.5770516357421875	0		3.225172119140625	-0.19674722290039062	0		4.69260888671875	-0.13156303405761718	0		5.586994140625	0.10012513732910157	0		-0.03193157768249512	5.95382470703125	0		
0.003493948936462402	0.0018119750022888184	0		0.493540771484375	-2.41950048828125	0		-0.9704722900390625	0.012526391983032226	0		-0.7600865478515625	-2.16766015625	0		1.4630848388671875	-0.5838291625976563	0		3.218779541015625	-0.1766910400390625	0		4.69795361328125	-0.12558299255371094	0		5.5888623046875	0.08124906158447266	0		-0.01609574317932129	5.963154296875	0		
-0.01338838005065918	7.641370296478272E-4	0		0.4699849548339844	-2.414378662109375	0		-0.9612150268554688	0.01891952705383301	0		-0.7177300415039063	-2.1668447265625	0		1.4993548583984375	-0.5797064208984375	0		3.230655029296875	-0.1919735107421875	0		4.69909765625	-0.12553640747070313	0		5.58033349609375	0.10055326080322266	0		-0.14887301635742187	5.94318896484375	0		
0.008719588279724121	0.00403026008605957	0		0.4981665954589844	-2.418179443359375	0		-0.9719951171875	0.028700342178344728	0		-0.76332275390625	-2.1564130859375	0		1.4653580322265625	-0.5843043212890625	0		3.226837158203125	-0.18496989440917969	0		4.6960400390625	-0.13142665100097656	0		5.59036279296875	0.10050112152099609	0		-0.16250546264648438	5.93307666015625	0		
-0.016314836502075197	0.0051640491485595704	0		0.497259765625	-2.420438232421875	0		-0.9052077026367188	0.0191103630065918	0		-0.69135107421875	-2.165076904296875	0		1.4955390625	-0.5740472412109375	0		3.248648193359375	-0.19343153381347655	0		4.69699365234375	-0.13140054321289063	0		5.59129931640625	0.10059563446044922	0		-0.01444723892211914	5.9630888671875	0		
-0.013611130714416504	-0.003184072017669678	0		0.49827688598632813	-2.4207158203125	0		-0.97833203125	0.021056331634521485	0		-0.7652862548828125	-2.161098388671875	0		1.4533978271484376	-0.5754862670898437	0		3.208587158203125	-0.18878427124023436	0		4.6978505859375	-0.13138356018066405	0		5.58801513671875	0.09374793243408203	0		-0.03019434356689453	5.95306298828125	0		
-0.017786537170410156	6.107220053672791E-4	0		0.4991845397949219	-2.4209765625	0		-0.9657609252929688	0.01048881721496582	0		-0.6816398315429687	-2.175915771484375	0		1.50800048828125	-0.5866455078125	0		3.231205810546875	-0.19726156616210938	0		4.7034677734375	-0.1394626770019531	0		5.58388671875	0.10090155792236329	0		-0.027859729766845705	5.95073291015625	0		
0.01685230255126953	-0.0012672300338745118	0		0.5040578308105469	-2.417292724609375	0		-0.9569766235351562	0.017015756607055663	0		-0.7466278076171875	-2.16306005859375	0		1.474843994140625	-0.5782294311523437	0		3.243161376953125	-0.18154486083984375	0		4.712349609375	-0.12760637664794922	0		5.60834375	0.08952883911132813	0		-0.14475656127929687	5.93953564453125	0		
-0.008565619468688964	-0.001061858057975769	0		0.5047623291015625	-2.41752197265625	0		-0.89425	0.024611833572387696	0		-0.674036376953125	-2.169627685546875	0		1.5015718994140625	-0.5718687744140625	0		3.230679931640625	-0.18539996337890624	0		4.69986572265625	-0.13138458251953125	0		5.585115234375	0.10098979949951171	0		-0.013067730903625488	5.961951171875	0		
-0.012975785255432129	0.003787386894226074	0		0.5013058166503906	-2.4216650390625	0		-0.9677212524414063	0.026637962341308594	0		-0.7212858276367188	-2.161051025390625	0		1.499046875	-0.5749832153320312	0		3.227101806640625	-0.19041583251953126	0		4.70037255859375	-0.1314033203125	0		5.59460986328125	0.100853515625	0		-0.16138645935058593	5.9323291015625	0		
0.010381237030029297	-8.381400108337403E-4	0		0.527780029296875	-2.425322265625	0		-0.9014421997070312	0.017216686248779298	0		-0.6888937377929687	-2.16886376953125	0		1.4964317626953125	-0.5790886840820313	0		3.233416748046875	-0.19760797119140625	0		4.69596826171875	-0.12234352874755859	0		5.581916015625	0.09409351348876953	0		-0.028833160400390623	5.95177490234375	0		
-0.01031567096710205	-0.004672586917877197	0		0.475334716796875	-2.4195771484375	0		-0.9669220581054687	0.02613764190673828	0		-0.7494525756835938	-2.169021484375	0		1.499892822265625	-0.5752916870117187	0		3.222059326171875	-0.1824857635498047	0		4.70604248046875	-0.1395494689941406	0		5.58640478515625	0.1010216293334961	0		-0.14589073181152343	5.94062646484375	0		
0.01412150764465332	0.0017165110111236573	0		0.5047272338867187	-2.4202587890625	0		-0.9547821044921875	0.01570853328704834	0		-0.7439768676757812	-2.1643232421875	0		1.4602532958984376	-0.5737301025390625	0		3.21634912109375	-0.18446365356445313	0		4.70561083984375	-0.12556903076171874	0		5.5867197265625	0.10101543426513672	0		-0.012383923530578614	5.96109765625	0		
-0.011582439422607421	0.0029986519813537597	0		0.48016531372070315	-2.41497998046875	0		-0.9663310546875	0.02571535873413086	0		-0.7175542602539062	-2.159974365234375	0		1.5005213623046876	-0.5755599365234375	0		3.232609375	-0.18582106018066405	0		4.69694287109375	-0.12244504547119141	0		5.5869912109375	0.10100857543945313	0		-0.02747713088989258	5.95018798828125	0		
0.019564956665039063	-0.0027009429931640623	0		0.5033459777832031	-2.42252587890625	0		-0.9660921630859375	0.025530342102050782	0		-0.758283447265625	-2.161435791015625	0		1.460800537109375	-0.5739776000976563	0		3.23773095703125	-0.1929759979248047	0		4.70202783203125	-0.13155908203125	0		5.5962265625	0.1008479232788086	0		-0.02838484001159668	5.95104638671875	0		
-0.01420005226135254	-0.0012508950233459473	0		0.49376272583007813	-2.414483154296875	0		-0.9740015258789062	0.018502111434936522	0		-0.6970065307617187	-2.161663818359375	0		1.4979349365234376	-0.57972802734375	0		3.223125	-0.18277479553222656	0		4.6974013671875	-0.12249398040771485	0		5.5874375	0.101007568359375	0		-0.14650205993652343	5.941962890625	0		
0.015039862632751465	0.0011134610176086427	0		0.5038739013671875	-2.4227734375	0		-0.9538652954101563	0.015000328063964844	0		-0.7479097900390625	-2.169920654296875	0		1.461234130859375	-0.5741762084960937	0		3.21728759765625	-0.18471917724609374	0		4.70654296875	-0.1256629180908203	0		5.59662548828125	0.10086032867431641	0		-0.027301750183105468	5.9497548828125	0		
-0.005848409175872803	-0.002635538101196289	0		0.4812357482910156	-2.4154775390625	0		-0.9536874389648438	0.014861923217773437	0		-0.6967741088867188	-2.175940673828125	0		1.4783365478515624	-0.579551513671875	0		3.25253466796875	-0.18136676025390625	0		4.71158447265625	-0.133750732421875	0		5.601609375	0.08979442596435547	0		-0.14447544860839845	5.9386767578125	0		
0.02250860023498535	0.007774586200714111	0		0.5094593505859375	-2.416053955078125	0		-0.9553784790039063	0.02277117156982422	0		-0.7532305908203125	-2.157071044921875	0		1.4677305908203124	-0.56742822265625	0		3.211767333984375	-0.17767831420898436	0		4.7010546875	-0.11655082702636718	0		5.59696923828125	0.10091226196289063	0		-0.028221807479858398	5.9505537109375	0		
-0.010424680709838867	0.002260780096054077	0		0.5065982971191406	-2.42107666015625	0		-0.9651767578125	0.024833059310913085	0		-0.6841956176757813	-2.168373291015625	0		1.5017666015625	-0.5760690307617188	0		3.208851318359375	-0.182634765625	0		4.69811962890625	-0.12247064208984375	0		5.5881337890625	0.10111761474609375	0		-0.02820151710510254	5.95046484375	0		
0.020648656845092775	-0.0033514339923858645	0		0.5047906799316406	-2.423104248046875	0		-0.9650126953125	0.02473281478881836	0		-0.758912109375	-2.164167236328125	0		1.501946044921875	-0.5761060791015625	0		3.21798486328125	-0.18478370666503907	0		4.703130859375	-0.13151106262207032	0		5.593173828125	0.09409970092773437	0		-0.02917182159423828	5.95140576171875	0		
